<!DOCTYPE svg PUBLIC "-//W3C//DTD SVG 1.1//EN" "http://www.w3.org/Graphics/SVG/1.1/DTD/svg11.dtd">
<!-- Uploaded to: SVG Repo, www.svgrepo.com, Transformed by: SVG Repo Mixer Tools -->
<svg width="800px" height="800px" viewBox="0 0 48 48" xmlns="http://www.w3.org/2000/svg" fill="&#9;#2662d9">
<g id="SVGRepo_bgCarrier" stroke-width="0"/>
<g id="SVGRepo_tracerCarrier" stroke-linecap="round" stroke-linejoin="round"/>
<g id="SVGRepo_iconCarrier"> <title>chart-donut-solid</title> <g id="Layer_2" data-name="Layer 2"> <g id="invisible_box" data-name="invisible box"> <rect width="48" height="48" fill="none"/> </g> <g id="icons_Q2" data-name="icons Q2"> <path d="M26,2.1V16.2a8.7,8.7,0,0,1,3.7,2.2L42,11.3A22.2,22.2,0,0,0,26,2.1ZM44,14.8,31.7,21.9a7.5,7.5,0,0,1,0,4.2L44,33.2a22.2,22.2,0,0,0,0-18.4ZM24,32a8,8,0,0,1-2-15.8V2.1A22,22,0,1,0,42,36.7L29.7,29.6A8,8,0,0,1,24,32Z"/> </g> </g> </g>
</svg>